:SAMPLES-PER-SECOND 30
:FULLY-SPECIFIED
:DEGREES
300
root  -8.814289063 36.60022105 9.766844502 71.37799072 -73.41699982 -61.17199707
lowerback  17.10300064 2.364749908 -4.722839832
upperback  6.312180042 1.672670007 -4.730420113
thorax  -2.825690031 0.6359900236 -2.644920111
lowerneck  -1.088829994 13.70899963 -5.286119938
upperneck  32.7154007 14.51930046 13.85779953
head  8.820130348 6.923570156 6.505449772
lclavicle  0 -9.442270133e-015 7.951389973e-016
lhumerus  17.59269905 -10.51109982 75.84230042
lradius  3.716463726e-032 -3.511512923e-031 96.04149628
lwrist  0 3.531125038e-031 68.75800323
lhand  -1.496451383e-031 -27.76390076 20.11240005
lfingers  90 7.125020027 -90
lthumb  89.89689403 5.08795885 91.16245106
rclavicle  0 -9.442270133e-015 7.951389973e-016
rhumerus  -41.58280182 15.80259991 -87.24520111
rradius  1.345288144e-031 3.264819114e-031 67.60559845
rwrist  3.531125038e-031 3.531125038e-031 -67.05580139
rhand  -7.920061211e-032 -33.2840004 9.303460121
rfingers  -90 -7.125020027 -90
rthumb  -92.93752616 -24.25625642 -97.11982154
rfemur  -10.02110004 20.47130013 4.320189953
rtibia  -0 0 41.5033989
rfoot  -0 -9.303250313 -7.560939789
rtoes  5.373923086 19.29304026 -105.8922705
lfemur  -55.55569839 -0.1729300022 11.95250034
ltibia  -0 0 55.6969986
lfoot  4.874553236e-032 -7.949540138 0.1152120009
ltoes  -4.250644065 -19.5611806 -102.515957
301
root  -8.954778056 36.46466713 10.08491141 68.0880127 -73.38899994 -58.26400757
lowerback  17.33399963 2.683130026 -4.043200016
upperback  6.395899773 2.183979988 -4.696070194
thorax  -2.828269958 0.8937900066 -3.098510027
lowerneck  -0.6826840043 13.27620029 -4.880809784
upperneck  32.95809937 13.81669998 13.88790035
head  8.942819595 6.634930134 6.435679913
lclavicle  0 -9.442270133e-015 7.951389973e-016
lhumerus  19.01460075 -13.80020046 76.3647995
lradius  3.937636271e-032 -3.509101629e-031 96.40249634
lwrist  0 7.062250077e-031 68.00630188
lhand  -1.496451383e-031 -27.76390076 20.11240005
lfingers  90 7.125020027 -90
lthumb  89.89689403 5.08795885 91.16245106
rclavicle  0 -9.442270133e-015 7.951389973e-016
rhumerus  -40.2635994 15.0241003 -87.57779694
rradius  1.392779991e-031 3.244843284e-031 66.76959991
rwrist  7.062250077e-031 3.531125038e-031 -66.02339935
rhand  -7.920061211e-032 -33.2840004 9.303460121
rfingers  -90 -7.125020027 -90
rthumb  -92.93752616 -24.25625642 -97.11982154
rfemur  -8.388449669 20.84359932 3.851890087
rtibia  -0 0 40.80339813
rfoot  -8.95863831e-032 -9.803770065 -7.069069862
rtoes  5.373923086 19.29304026 -105.8922705
lfemur  -56.3586998 -1.290060043 11.30920029
ltibia  -0 0 57.23759842
lfoot  4.740199661e-032 -8.364589691 -0.2309049964
ltoes  -4.250644065 -19.5611806 -102.515957
302
root  -9.077400298 36.27488745 10.36935566 64.89099121 -73.53500366 -55.75900269
lowerback  17.92370033 3.213099957 -3.631150007
upperback  6.488900185 2.897089958 -4.599239826
thorax  -3.004230022 1.244230032 -3.396780014
lowerneck  -0.0237610992 12.78439999 -4.404160023
upperneck  32.79219818 13.06970024 13.89019966
head  8.884900093 6.34262991 6.288879871
lclavicle  0 -9.442270133e-015 7.951389973e-016
lhumerus  20.05319977 -17.09359932 77.1140976
lradius  4.192068464e-032 -3.506153114e-031 96.81809998
lwrist  -7.062250077e-031 1.059337512e-030 67.21700287
lhand  -1.496451383e-031 -27.76390076 20.11240005
lfingers  90 7.125020027 -90
lthumb  89.89689403 5.08795885 91.16245106
rclavicle  0 -9.442270133e-015 7.951389973e-016
rhumerus  -38.91249847 14.14970016 -87.89219666
rradius  1.389438001e-031 3.246275724e-031 66.82859802
rwrist  7.062250077e-031 1.059337512e-030 -67.91480255
rhand  -7.920061211e-032 -33.2840004 9.303460121
rfingers  -90 -7.125020027 -90
rthumb  -92.93752616 -24.25625642 -97.11982154
rfemur  -6.735030174 21.00209999 3.386149883
rtibia  -0 0 40.57730103
rfoot  -4.482708811e-032 -10.05140018 -6.359340191
rtoes  5.373923086 19.29304026 -105.8922705
lfemur  -57.11220169 -2.01564002 10.43109989
ltibia  -0 0 59.10070038
lfoot  5.580976337e-032 -8.657690048 -0.8394730091
ltoes  -4.250644065 -19.5611806 -102.515957
303
root  -9.200511392 36.1000001 10.61842235 61.97601318 -73.93399811 -53.43200684
lowerback  18.2493 3.838170052 -3.865550041
upperback  6.534080029 3.662430048 -4.268340111
thorax  -3.137130022 1.614330053 -3.087500095
lowerneck  0.8555589914 12.34930038 -4.389780045
upperneck  32.38980103 12.49479961 13.80760002
head  8.650549889 6.074329853 6.150149822
lclavicle  0 -9.442270133e-015 7.951389973e-016
lhumerus  20.4368 -19.85519981 78.35949707
lradius  4.480637048e-032 -3.502582326e-031 97.28990173
lwrist  -3.531125038e-031 3.531125038e-031 66.31420135
lhand  -1.496451383e-031 -27.76390076 20.11240005
lfingers  90 7.125020027 -90
lthumb  89.89689403 5.08795885 91.16245106
rclavicle  0 -9.442270133e-015 7.951389973e-016
rhumerus  -37.37459946 13.6093998 -87.79389954
rradius  1.394739206e-031 3.244001631e-031 66.73500061
rwrist  3.531125038e-031 7.062250077e-031 -68.12519836
rhand  -7.920061211e-032 -33.2840004 9.303460121
rfingers  -90 -7.125020027 -90
rthumb  -92.93752616 -24.25625642 -97.11982154
rfemur  -5.595970154 21.21389961 2.71374011
rtibia  -0 0 40.83560181
rfoot  -4.484606858e-032 -10.18729973 -5.653160095
rtoes  5.373923086 19.29304026 -105.8922705
lfemur  -57.68840027 -2.464459896 9.181810379
ltibia  -0 0 60.97869873
lfoot  4.470109114e-032 -9.095230103 -1.363880038
ltoes  -4.250644065 -19.5611806 -102.515957
